<svg xmlns="http://www.w3.org/2000/svg" viewBox="0 0 880 360" role="img" aria-label="Seek six blade camera iris logo lockup on dark">
  <defs>
    <linearGradient id="seekText" x1="368" y1="84" x2="650" y2="228" gradientUnits="userSpaceOnUse">
      <stop offset="0" stop-color="#f6f6f5"/>
      <stop offset="0.62" stop-color="#cfe6e4"/>
      <stop offset="1" stop-color="#95d2e6"/>
    </linearGradient>
    <linearGradient id="seekerTraceStroke" x1="74" y1="64" x2="438" y2="448" gradientUnits="userSpaceOnUse">
      <stop offset="0" stop-color="#cfe6e4"/>
      <stop offset="0.5" stop-color="#95d2e6"/>
      <stop offset="1" stop-color="#61afbd"/>
    </linearGradient>
    <radialGradient id="seekLensDepth" cx="50%" cy="48%" r="68%">
      <stop offset="0" stop-color="#101618"/>
      <stop offset="0.55" stop-color="#071314"/>
      <stop offset="1" stop-color="#010101"/>
    </radialGradient>
    <clipPath id="seekTraceClip">
      <circle cx="256" cy="256" r="205"/>
    </clipPath>
    <path id="seekTraceSeparator" d="M256 56C334 67 398 126 416 202C399 249 361 282 314 298"/>
    <path id="seekTraceOpening" d="M314 214L326 277L270 326L207 303L188 239L242 184Z"/>
    <symbol id="seekIrisTrace" viewBox="0 0 512 512">
      <circle cx="256" cy="256" r="236" fill="#010101"/>
      <circle cx="256" cy="256" r="220" fill="#10282c"/>
      <circle cx="256" cy="256" r="209" fill="url(#seekLensDepth)" stroke="url(#seekerTraceStroke)" stroke-width="10"/>
      <circle cx="256" cy="256" r="195" fill="none" stroke="#010101" stroke-width="10"/>
      <g clip-path="url(#seekTraceClip)" fill="none" stroke-linecap="round">
        <use href="#seekTraceSeparator" stroke="#cfe6e4" stroke-width="7" opacity="0.95" transform="rotate(0 256 256)"/>
        <use href="#seekTraceSeparator" stroke="#95d2e6" stroke-width="7" opacity="0.9" transform="rotate(60 256 256)"/>
        <use href="#seekTraceSeparator" stroke="#61afbd" stroke-width="7" opacity="0.85" transform="rotate(120 256 256)"/>
        <use href="#seekTraceSeparator" stroke="#cfe6e4" stroke-width="7" opacity="0.95" transform="rotate(180 256 256)"/>
        <use href="#seekTraceSeparator" stroke="#95d2e6" stroke-width="7" opacity="0.9" transform="rotate(240 256 256)"/>
        <use href="#seekTraceSeparator" stroke="#61afbd" stroke-width="7" opacity="0.85" transform="rotate(300 256 256)"/>
      </g>
      <use href="#seekTraceOpening" fill="#f6f6f5"/>
    </symbol>
  </defs>
  <rect width="880" height="360" rx="24" fill="#010101"/>
  <use href="#seekIrisTrace" x="70" y="52" width="256" height="256"/>
  <text x="368" y="203" fill="url(#seekText)" font-family="'PP Mori Regular','PP Mori Regular Placeholder','Avenir Next','Helvetica Neue',Arial,sans-serif" font-size="154" font-weight="400" letter-spacing="-4">Seek</text>
  <text x="376" y="263" fill="#99b3be" font-family="'Rational TW Text Book','Rational TW Text Book Placeholder','Avenir Next','Helvetica Neue',Arial,sans-serif" font-size="26" font-weight="400" letter-spacing="0">Hunt. Capture. Win.</text>
</svg>
